<svg viewBox="0 0 300 72" xmlns="http://www.w3.org/2000/svg" role="img" aria-label="LawMitran — Legal Help, Simplified.">
  <!-- ===================== LM + scales mark ===================== -->
  <g>
    <path d="M33 5 V20" stroke="#0E2148" stroke-width="2.4" stroke-linecap="round"/>
    <path d="M33 2.6 L35.4 7 H30.6 Z" fill="#0E2148"/>
    <circle cx="33" cy="13" r="2.3" fill="#0E2148"/>
    <path d="M12.5 15 H53.5" stroke="#0E2148" stroke-width="2.4" stroke-linecap="round"/>
    <circle cx="12.5" cy="15" r="1.9" fill="#0E2148"/>
    <circle cx="53.5" cy="15" r="1.9" fill="#0E2148"/>
    <path d="M12.5 15 L6.5 26 M12.5 15 L18.5 26" stroke="#0E2148" stroke-width="0.9"/>
    <path d="M5.5 26 A7 4.4 0 0 0 19.5 26 Z" fill="#C9A24B"/>
    <path d="M53.5 15 L47.5 26 M53.5 15 L59.5 26" stroke="#0E2148" stroke-width="0.9"/>
    <path d="M46.5 26 A7 4.4 0 0 0 60.5 26 Z" fill="#C9A24B"/>
    <rect x="28.5" y="20" width="9" height="2.6" rx="0.8" fill="#0E2148"/>
    <rect x="30.4" y="22.6" width="1.4" height="10" fill="#0E2148"/>
    <rect x="32.3" y="22.6" width="1.4" height="10" fill="#0E2148"/>
    <rect x="34.2" y="22.6" width="1.4" height="10" fill="#0E2148"/>
    <text x="33" y="57" text-anchor="middle" font-family="Georgia,'Times New Roman',serif" font-weight="700" font-size="30" letter-spacing="-2"><tspan fill="#0E2148">L</tspan><tspan fill="#C9A24B">M</tspan></text>
    <rect x="21" y="60.5" width="24" height="3.2" rx="1.5" fill="#0E2148"/>
    <rect x="16" y="65" width="34" height="3.4" rx="1.6" fill="#0E2148"/>
  </g>
  <text x="72" y="40" font-family="'Segoe UI',Arial,sans-serif" font-weight="800" font-size="25" letter-spacing="1.4" fill="#0E2148">LAWMITRAN</text>
  <path d="M96.5 43.5 L100 49 H93 Z" fill="#C9A24B"/>
  <path d="M236 43.5 L239.5 49 H232.5 Z" fill="#C9A24B"/>
  <line x1="73" y1="52.5" x2="116" y2="52.5" stroke="#C9A24B" stroke-width="1.1"/>
  <text x="120" y="56.5" font-family="'Segoe UI',Arial,sans-serif" font-weight="700" font-size="8.6" letter-spacing="3.1" fill="#C9A24B">LEGAL HELP, SIMPLIFIED.</text>
  <line x1="281" y1="52.5" x2="297" y2="52.5" stroke="#C9A24B" stroke-width="1.1"/>
</svg>
